Coordinates
version=1
nRows=22
nColumns=24
inDegrees=yes

Units are S.I. units (second, meters, Newtons, ...)
Angles are in degrees.

endheader
time	pelvis_tilt	pelvis_list	pelvis_rotation	pelvis_tx	pelvis_ty	pelvis_tz	hip_flexion_r	hip_adduction_r	hip_rotation_r	knee_angle_r	ankle_angle_r	subtalar_angle_r	mtp_angle_r	hip_flexion_l	hip_adduction_l	hip_rotation_l	knee_angle_l	ankle_angle_l	subtalar_angle_l	mtp_angle_l	lumbar_extension	lumbar_bending	lumbar_rotation
      1.09000000	     18.77372285	      6.38184431	      3.19695440	     -0.51689006	      0.91981605	      0.26911516	      6.61492534	     -4.69373938	     -5.73799010	     -9.88584434	      9.85561823	      2.19705368	     47.92959337	    -35.46907782	      6.28596324	     -2.26736768	    -16.00267592	     28.53765986	     16.24942731	     22.51505362	    -35.92711293	     -3.56773930	     -6.25732540
      1.09500000	     18.77275266	      6.22539826	      3.27444859	     -0.50944344	      0.91910000	      0.26930985	      6.80301015	     -4.45272732	     -5.55216199	    -10.88603130	      9.78565566	      1.95834251	     47.97297304	    -35.46644849	      5.98776511	     -2.33468543	    -16.93775443	     28.21105137	     16.34662448	     24.43445119	    -35.83007404	     -3.33205965	     -6.22031043
      1.10000000	     18.80243648	      6.05648065	      3.50016605	     -0.50199035	      0.91856215	      0.26926311	      6.89278095	     -4.22497982	     -5.59671062	    -11.86120392	      9.68909867	      1.84913299	     48.00920086	    -35.42830518	      5.59535769	     -2.24569510	    -18.01465457	     27.98405275	     16.44127656	     24.75186623	    -35.77187960	     -2.97987350	     -6.36341891
      1.10500000	     18.75942938	      5.91341252	      3.53337788	     -0.49453932	      0.91791218	      0.26949116	      7.14252410	     -4.00078551	     -5.34907359	    -12.96316179	      9.55259454	      1.53226600	     48.36039278	    -35.28682544	      5.34819938	     -2.28602477	    -19.09027485	     27.39070023	     16.32863147	     28.14081398	    -35.63162237	     -2.78457620	     -6.26423426
      1.11000000	     18.77095278	      5.76691872	      3.73278945	     -0.48711868	      0.91747313	      0.26945086	      7.26344557	     -3.80576926	     -5.37751501	    -14.02566651	      9.44513917	      1.42377727	     48.48879223	    -35.12273545	      5.00244280	     -2.15960412	    -20.31717739	     26.85906609	     16.22233723	     30.32899351	    -35.56158732	     -2.46307848	     -6.39608332
      1.11500000	     18.74804170	      5.54910960	      3.83454791	     -0.47964761	      0.91700552	      0.26959801	      7.41607629	     -3.50783886	     -5.21826730	    -15.05917076	      9.26220357	      1.17213893	     48.52312785	    -34.85228633	      4.63849332	     -2.22275814	    -21.66028579	     26.32325841	     16.16693418	     32.32061398	    -35.44097394	     -2.14711438	     -6.32470086
      1.12000000	     18.68174368	      5.41129353	      3.98468518	     -0.47226623	      0.91658144	      0.26963591	      7.63876927	     -3.32064586	     -5.17368551	    -16.18822961	      9.16038249	      0.97083207	     48.51510695	    -34.47462850	      4.33870947	     -2.10335126	    -23.08776574	     25.67150116	     16.04664369	     34.38346907	    -35.29295058	     -1.88196063	     -6.33858084
      1.12500000	     18.63021025	      5.19798028	      4.11898302	     -0.46486497	      0.91622644	      0.26973148	      7.80160856	     -3.03816610	     -5.07764651	    -17.23234138	      9.02823343	      0.71694982	     48.39845834	    -34.03236940	      3.96830543	     -2.09979342	    -24.63935874	     24.97605678	     15.90855545	     36.66220404	    -35.15267698	     -1.55053552	     -6.29310039
      1.13000000	     18.54131113	      5.01722902	      4.27396099	     -0.45754215	      0.91590601	      0.26977718	      8.00182768	     -2.80266105	     -5.01948255	    -18.29233287	      8.95452412	      0.50119112	     48.20565383	    -33.47259702	      3.63028488	     -2.01105007	    -26.30300042	     24.22074205	     15.72755041	     38.69768565	    -34.98526059	     -1.24431087	     -6.26586491
      1.13500000	     18.47325372	      4.77921220	      4.43024120	     -0.45022390	      0.91567160	      0.26983863	      8.13836345	     -2.49797521	     -4.95629582	    -19.27538508	      8.88738532	      0.28252396	     47.86142745	    -32.85999879	      3.23153577	     -1.98277189	    -28.06614883	     23.38466549	     15.50251292	     41.10902067	    -34.83676277	     -0.87739169	     -6.20731181
      1.14000000	     18.34915927	      4.57214324	      4.59876969	     -0.44304344	      0.91542042	      0.26988625	      8.33899334	     -2.23344488	     -4.90295697	    -20.26531523	      8.86145737	      0.04547025	     47.51611799	    -32.09492419	      2.87057986	     -1.87292500	    -29.96594252	     22.55837721	     15.28024860	     42.79958660	    -34.64720604	     -0.54533065	     -6.15828171
      1.14500000	     18.26463134	      4.29788738	      4.81627212	     -0.43582432	      0.91532867	      0.26988801	      8.42141541	     -1.89233562	     -4.91483204	    -21.12713697	      8.87691259	     -0.17720637	     46.87592068	    -31.30860983	      2.40905543	     -1.78630490	    -31.92031436	     21.56354271	     15.03958991	     45.24134399	    -34.48827390	     -0.11671035	     -6.12113874
      1.15000000	     18.07473592	      4.03888215	      4.98079062	     -0.42877199	      0.91507342	      0.26995406	      8.66523618	     -1.56948149	     -4.84973131	    -22.05210145	      8.94139037	     -0.43123578	     46.41978288	    -30.31423384	      2.01973120	     -1.68917590	    -34.02133281	     20.69644315	     14.69675641	     46.53193935	    -34.23793979	      0.25140793	     -6.01509333
      1.15500000	     17.85529488	      3.75001731	      5.20119836	     -0.42176980	      0.91486622	      0.26995344	      8.88480032	     -1.21829686	     -4.82874529	    -22.87396542	      9.05022642	     -0.69092458	     45.75323768	    -29.20563891	      1.57941947	     -1.54906576	    -36.20903836	     19.73619461	     14.34974316	     48.02433769	    -33.95476456	      0.67626775	     -5.94331606
      1.16000000	     17.69717872	      3.42250732	      5.54397076	     -0.41491049	      0.91480219	      0.26984839	      8.96049916	     -0.82347570	     -4.92735960	    -23.54552898	      9.14563778	     -1.08291081	     45.42135485	    -28.07060784	      1.03526482	     -1.29435633	    -38.49564664	     18.83846536	     14.14510218	     48.56412355	    -33.74909633	      1.21305452	     -6.02190329
      1.16500000	     17.42421019	      3.07066453	      5.82954620	     -0.40811346	      0.91458001	      0.26977338	      9.18747465	     -0.41025963	     -4.97838029	    -24.24384746	      9.29787339	     -1.43129287	     44.95078075	    -26.74462667	      0.53068441	     -1.07543963	    -40.84681646	     17.92622412	     13.76329704	     49.22422166	    -33.41855709	      1.71652281	     -5.93631972
      1.17000000	     17.15405614	      2.71419065	      6.03767442	     -0.40135399	      0.91441907	      0.26974521	      9.38435440	      0.01858522	     -4.93697632	    -24.88516956	      9.65137979	     -1.54680849	     42.86721658	    -25.40203336	      0.07831085	     -0.89875587	    -43.13678278	     16.80703849	     13.12384383	     51.72827733	    -33.09165625	      2.15977873	     -5.62445309
      1.17500000	     16.88829377	      2.29442766	      6.41478312	     -0.39475035	      0.91427196	      0.26956050	      9.51961035	      0.49905844	     -5.09170309	    -25.39288189	      9.85968348	     -1.90904168	     42.59919892	    -23.95448068	     -0.50625988	     -0.57208990	    -45.55991518	     15.96449655	     12.67845895	     51.86716396	    -32.77463392	      2.78651649	     -5.66568576
      1.18000000	     16.48882361	      1.85866907	      6.74429183	     -0.38818716	      0.91398405	      0.26942662	      9.78377480	      0.99557561	     -5.14063370	    -25.84056288	     10.09457381	     -2.24694271	     42.08926413	    -22.31316769	     -1.05010981	     -0.25364661	    -47.99277020	     15.09770301	     12.20099901	     52.05448240	    -32.30871983	      3.36915590	     -5.57161993
      1.18500000	     16.03891002	      1.38722351	      6.97921444	     -0.38163926	      0.91358412	      0.26939117	     10.12816694	      1.53076498	     -5.13064197	    -26.32486774	     10.53403715	     -2.38983478	     40.62867640	    -20.60018809	     -1.57218169	     -0.02420227	    -50.39022850	     14.31773598	     11.61211734	     52.34776171	    -31.78387002	      3.91974207	     -5.30779777
      1.19000000	     15.65446001	      0.90735722	      7.36078322	     -0.37527877	      0.91335323	      0.26915956	     10.32713086	      2.06140629	     -5.28525448	    -26.64491871	     10.85375244	     -2.68883046	     39.67112276	    -18.88805098	     -2.13783994	      0.40046603	    -52.78083041	     13.59782831	     11.06120692	     52.30661222	    -31.33847690	      4.56313265	     -5.21479167
      1.19500000	     15.29990698	      0.40840678	      7.76700036	     -0.36898141	      0.91320771	      0.26890684	     10.44363827	      2.62106608	     -5.44980722	    -26.83976882	     11.11005073	     -3.10133804	     39.08066719	    -17.17756885	     -2.71321521	      0.87284193	    -55.11590757	     12.94103267	     10.50807518	     52.16682193	    -30.91866193	      5.24549476	     -5.19400704
